HIERARCHY
ROOT Hips
{
	OFFSET -0.759342 87.667793 4.689505
	CHANNELS 6 Xposition Yposition Zposition Zrotation Yrotation Xrotation 
	JOINT Spine
	{
		OFFSET 0.000000 8.814246 -2.080107
		CHANNELS 3 Zrotation Yrotation Xrotation
		JOINT Spine1
		{
			OFFSET -0.000000 8.844141 0.000000
			CHANNELS 3 Zrotation Yrotation Xrotation
			JOINT Spine2
			{
				OFFSET -0.000000 11.682268 -0.000000
				CHANNELS 3 Zrotation Yrotation Xrotation
				JOINT Spine3
				{
					OFFSET 0.000000 11.746700 0.000000
					CHANNELS 3 Zrotation Yrotation Xrotation
					JOINT Neck
					{
						OFFSET -0.000000 17.658264 0.000000
						CHANNELS 3 Zrotation Yrotation Xrotation
						JOINT Neck1
						{
							OFFSET 0.000000 5.101515 -0.000000
							CHANNELS 3 Zrotation Yrotation Xrotation
							JOINT Head
							{
								OFFSET -0.000000 5.101515 0.000000
								CHANNELS 3 Zrotation Yrotation Xrotation
								JOINT HeadEnd
								{
									OFFSET 0.000000 11.655085 -0.000000
									CHANNELS 3 Zrotation Yrotation Xrotation
									End Site
									{
										OFFSET 0.000000 0.000000 0.000000
									}
								}
							}
						}
					}
					JOINT RightShoulder
					{
						OFFSET -2.625389 11.175210 -0.000000
						CHANNELS 3 Zrotation Yrotation Xrotation
						JOINT RightArm
						{
							OFFSET -0.000000 10.434715 0.000000
							CHANNELS 3 Zrotation Yrotation Xrotation
							JOINT RightForeArm
							{
								OFFSET -0.000000 29.628420 0.000000
								CHANNELS 3 Zrotation Yrotation Xrotation
								JOINT RightHand
								{
									OFFSET -0.000000 22.857611 0.000000
									CHANNELS 3 Zrotation Yrotation Xrotation
									JOINT RightHandThumb1
									{
										OFFSET -2.867323 3.959563 2.944291
										CHANNELS 3 Zrotation Yrotation Xrotation
										JOINT RightHandThumb2
										{
											OFFSET -0.000000 3.350399 0.000000
											CHANNELS 3 Zrotation Yrotation Xrotation
											JOINT RightHandThumb3
											{
												OFFSET 0.000000 3.756509 -0.000000
												CHANNELS 3 Zrotation Yrotation Xrotation
												JOINT RightHandThumb4
												{
													OFFSET 0.000000 3.147345 -0.000000
													CHANNELS 3 Zrotation Yrotation Xrotation
													End Site
													{
														OFFSET 0.000000 0.000000 0.000000
													}
												}
											}
										}
									}
									JOINT RightHandIndex1
									{
										OFFSET -0.086752 10.030893 2.345280
										CHANNELS 3 Zrotation Yrotation Xrotation
										JOINT RightHandIndex2
										{
											OFFSET -0.000000 4.061090 0.000000
											CHANNELS 3 Zrotation Yrotation Xrotation
											JOINT RightHandIndex3
											{
												OFFSET 0.000000 3.248873 -0.000000
												CHANNELS 3 Zrotation Yrotation Xrotation
												JOINT RightHandIndex4
												{
													OFFSET -0.000000 2.639709 0.000000
													CHANNELS 3 Zrotation Yrotation Xrotation
													End Site
													{
														OFFSET 0.000000 0.000000 0.000000
													}
												}
											}
										}
									}
									JOINT RightHandMiddle1
									{
										OFFSET 0.104102 9.502952 0.006768
										CHANNELS 3 Zrotation Yrotation Xrotation
										JOINT RightHandMiddle2
										{
											OFFSET -0.000000 4.568727 0.000000
											CHANNELS 3 Zrotation Yrotation Xrotation
											JOINT RightHandMiddle3
											{
												OFFSET -0.000000 3.654981 0.000000
												CHANNELS 3 Zrotation Yrotation Xrotation
												JOINT RightHandMiddle4
												{
													OFFSET 0.000000 2.741236 -0.000000
													CHANNELS 3 Zrotation Yrotation Xrotation
													End Site
													{
														OFFSET 0.000000 0.000000 0.000000
													}
												}
											}
										}
									}
									JOINT RightHandRing1
									{
										OFFSET 0.086752 8.921708 -2.267442
										CHANNELS 3 Zrotation Yrotation Xrotation
										JOINT RightHandRing2
										{
											OFFSET 0.000000 4.061090 -0.000000
											CHANNELS 3 Zrotation Yrotation Xrotation
											JOINT RightHandRing3
											{
												OFFSET -0.000000 3.654981 0.000000
												CHANNELS 3 Zrotation Yrotation Xrotation
												JOINT RightHandRing4
												{
													OFFSET -0.000000 2.741236 0.000000
													CHANNELS 3 Zrotation Yrotation Xrotation
													End Site
													{
														OFFSET 0.000000 0.000000 0.000000
													}
												}
											}
										}
									}
									JOINT RightHandPinky1
									{
										OFFSET -0.173504 7.976997 -4.467199
										CHANNELS 3 Zrotation Yrotation Xrotation
										JOINT RightHandPinky2
										{
											OFFSET 0.000000 3.350399 -0.000000
											CHANNELS 3 Zrotation Yrotation Xrotation
											JOINT RightHandPinky3
											{
												OFFSET -0.000000 2.842763 0.000000
												CHANNELS 3 Zrotation Yrotation Xrotation
												JOINT RightHandPinky4
												{
													OFFSET 0.000000 2.639709 -0.000000
													CHANNELS 3 Zrotation Yrotation Xrotation
													End Site
													{
														OFFSET 0.000000 0.000000 0.000000
													}
												}
											}
										}
									}
									JOINT RightForeArmEnd
									{
										OFFSET 0.000000 0.000000 0.000000
										CHANNELS 3 Zrotation Yrotation Xrotation
										End Site
										{
											OFFSET 0.000000 0.000000 0.000000
										}
									}
								}
								JOINT RightArmEnd
								{
									OFFSET 0.000000 0.000000 0.000000
									CHANNELS 3 Zrotation Yrotation Xrotation
									End Site
									{
										OFFSET 0.000000 0.000000 0.000000
									}
								}
							}
						}
					}
					JOINT LeftShoulder
					{
						OFFSET 2.625389 11.175210 0.000000
						CHANNELS 3 Zrotation Yrotation Xrotation
						JOINT LeftArm
						{
							OFFSET 0.000000 10.813635 0.000000
							CHANNELS 3 Zrotation Yrotation Xrotation
							JOINT LeftForeArm
							{
								OFFSET 0.000000 28.724781 -0.000000
								CHANNELS 3 Zrotation Yrotation Xrotation
								JOINT LeftHand
								{
									OFFSET 0.644384 25.716167 -0.328871
									CHANNELS 3 Zrotation Yrotation Xrotation
									JOINT LeftHandThumb1
									{
										OFFSET 2.867323 3.959563 2.944291
										CHANNELS 3 Zrotation Yrotation Xrotation
										JOINT LeftHandThumb2
										{
											OFFSET -0.000000 3.350399 -0.000000
											CHANNELS 3 Zrotation Yrotation Xrotation
											JOINT LeftHandThumb3
											{
												OFFSET -0.000000 3.756509 0.000000
												CHANNELS 3 Zrotation Yrotation Xrotation
												JOINT LeftHandThumb4
												{
													OFFSET 0.000000 3.100000 -0.000000
													CHANNELS 3 Zrotation Yrotation Xrotation
													End Site
													{
														OFFSET 0.000000 0.000000 0.000000
													}
												}
											}
										}
									}
									JOINT LeftHandIndex1
									{
										OFFSET 0.086752 10.030893 2.345280
										CHANNELS 3 Zrotation Yrotation Xrotation
										JOINT LeftHandIndex2
										{
											OFFSET 0.000000 4.061090 -0.000000
											CHANNELS 3 Zrotation Yrotation Xrotation
											JOINT LeftHandIndex3
											{
												OFFSET -0.000000 3.248873 -0.000000
												CHANNELS 3 Zrotation Yrotation Xrotation
												JOINT LeftHandIndex4
												{
													OFFSET -0.000000 2.639709 -0.000000
													CHANNELS 3 Zrotation Yrotation Xrotation
													End Site
													{
														OFFSET 0.000000 0.000000 0.000000
													}
												}
											}
										}
									}
									JOINT LeftHandMiddle1
									{
										OFFSET -0.104102 9.502952 0.006768
										CHANNELS 3 Zrotation Yrotation Xrotation
										JOINT LeftHandMiddle2
										{
											OFFSET 0.000000 4.568727 0.000000
											CHANNELS 3 Zrotation Yrotation Xrotation
											JOINT LeftHandMiddle3
											{
												OFFSET -0.000000 3.654981 -0.000000
												CHANNELS 3 Zrotation Yrotation Xrotation
												JOINT LeftHandMiddle4
												{
													OFFSET 0.000000 2.741236 0.000000
													CHANNELS 3 Zrotation Yrotation Xrotation
													End Site
													{
														OFFSET 0.000000 0.000000 0.000000
													}
												}
											}
										}
									}
									JOINT LeftHandRing1
									{
										OFFSET -0.086752 8.921708 -2.267442
										CHANNELS 3 Zrotation Yrotation Xrotation
										JOINT LeftHandRing2
										{
											OFFSET -0.000000 4.061090 -0.000000
											CHANNELS 3 Zrotation Yrotation Xrotation
											JOINT LeftHandRing3
											{
												OFFSET -0.000000 3.654981 0.000000
												CHANNELS 3 Zrotation Yrotation Xrotation
												JOINT LeftHandRing4
												{
													OFFSET -0.000000 2.741236 -0.000000
													CHANNELS 3 Zrotation Yrotation Xrotation
													End Site
													{
														OFFSET 0.000000 0.000000 0.000000
													}
												}
											}
										}
									}
									JOINT LeftHandPinky1
									{
										OFFSET 0.173504 7.976997 -4.467199
										CHANNELS 3 Zrotation Yrotation Xrotation
										JOINT LeftHandPinky2
										{
											OFFSET 0.000000 3.350399 0.000000
											CHANNELS 3 Zrotation Yrotation Xrotation
											JOINT LeftHandPinky3
											{
												OFFSET -0.000000 2.842763 -0.000000
												CHANNELS 3 Zrotation Yrotation Xrotation
												JOINT LeftHandPinky4
												{
													OFFSET -0.000000 2.639709 -0.000000
													CHANNELS 3 Zrotation Yrotation Xrotation
													End Site
													{
														OFFSET 0.000000 0.000000 0.000000
													}
												}
											}
										}
									}
									JOINT LeftForeArmEnd
									{
										OFFSET 0.000000 0.000000 0.000000
										CHANNELS 3 Zrotation Yrotation Xrotation
										End Site
										{
											OFFSET 0.000000 0.000000 0.000000
										}
									}
								}
								JOINT LeftArmEnd
								{
									OFFSET 0.000000 0.000000 0.000000
									CHANNELS 3 Zrotation Yrotation Xrotation
									End Site
									{
										OFFSET 0.000000 0.000000 0.000000
									}
								}
							}
						}
					}
				}
			}
		}
	}
	JOINT RightUpLeg
	{
		OFFSET -11.289943 -0.000000 0.000000
		CHANNELS 3 Zrotation Yrotation Xrotation
		JOINT RightLeg
		{
			OFFSET 0.000000 -38.200325 -0.000000
			CHANNELS 3 Zrotation Yrotation Xrotation
			JOINT RightFoot
			{
				OFFSET 0.000000 -39.900856 0.000000
				CHANNELS 3 Zrotation Yrotation Xrotation
				JOINT RightToeBase
				{
					OFFSET 0.000000 -0.000000 15.261641
					CHANNELS 3 Zrotation Yrotation Xrotation
					JOINT RightToeBaseEnd
					{
						OFFSET -0.000000 -0.000000 7.370709
						CHANNELS 3 Zrotation Yrotation Xrotation
						End Site
						{
							OFFSET 0.000000 0.000000 0.000000
						}
					}
				}
				JOINT RightLegEnd
				{
					OFFSET 0.000000 0.000000 0.000000
					CHANNELS 3 Zrotation Yrotation Xrotation
					End Site
					{
						OFFSET 0.000000 0.000000 0.000000
					}
				}
			}
			JOINT RightUpLegEnd
			{
				OFFSET 0.000000 0.000000 0.000000
				CHANNELS 3 Zrotation Yrotation Xrotation
				End Site
				{
					OFFSET 0.000000 0.000000 0.000000
				}
			}
		}
	}
	JOINT LeftUpLeg
	{
		OFFSET 11.315661 -0.000000 -0.000000
		CHANNELS 3 Zrotation Yrotation Xrotation
		JOINT LeftLeg
		{
			OFFSET -0.000000 -38.200325 0.000000
			CHANNELS 3 Zrotation Yrotation Xrotation
			JOINT LeftFoot
			{
				OFFSET 0.000000 -39.900856 -0.000000
				CHANNELS 3 Zrotation Yrotation Xrotation
				JOINT LeftToeBase
				{
					OFFSET -0.000000 -0.000000 15.261641
					CHANNELS 3 Zrotation Yrotation Xrotation
					JOINT LeftToeBaseEnd
					{
						OFFSET 0.000000 -0.000000 7.539996
						CHANNELS 3 Zrotation Yrotation Xrotation
						End Site
						{
							OFFSET 0.000000 0.000000 0.000000
						}
					}
				}
				JOINT LeftLegEnd
				{
					OFFSET 0.000000 0.000000 0.000000
					CHANNELS 3 Zrotation Yrotation Xrotation
					End Site
					{
						OFFSET 0.000000 0.000000 0.000000
					}
				}
			}
			JOINT LeftUpLegEnd
			{
				OFFSET 0.000000 0.000000 0.000000
				CHANNELS 3 Zrotation Yrotation Xrotation
				End Site
				{
					OFFSET 0.000000 0.000000 0.000000
				}
			}
		}
	}
}
MOTION
Frames: 4
Frame Time: 0.016667
-0.759342 87.667793 4.689505 3.468469 0.752956 -12.233212 -6.028434 0.945840 7.782657 -1.803922 0.422942 3.975869 2.093531 -0.843021 4.987226 3.516115 -0.299318 1.697576 -0.200619 -2.260492 2.315868 0.194723 -2.553781 -4.338128 2.120477 1.174264 -16.670248 0.000000 0.000000 0.000000 93.992226 -0.435968 6.288360 59.846161 -23.948889 3.624455 -0.102678 12.822737 35.803642 18.929747 6.779087 -3.767929 12.435399 -1.968813 39.088257 0.000000 0.000000 -30.239998 0.000001 0.000000 -21.000002 0.000000 0.000000 0.000000 21.927877 16.987106 -2.298895 15.192314 -0.390036 -4.571699 15.192738 0.575017 -4.309638 0.000000 0.000000 0.000000 19.517574 6.968199 -5.490662 14.052358 -0.789868 -1.705024 14.051023 0.181895 -1.462226 0.000000 0.000000 0.000000 19.630192 -8.883079 -9.320813 12.634636 1.781381 1.975627 12.628487 -0.170221 1.538244 0.000000 0.000000 0.000000 21.123539 -25.276505 -14.500463 9.631763 3.618377 4.537206 9.612535 -0.325393 3.868460 0.000000 0.000000 0.000000 0.000000 0.000000 0.000000 0.000000 0.000000 0.000000 -87.025047 -0.640747 11.924372 -69.686348 39.047619 -3.730644 -0.625959 -14.765736 40.158791 -13.753436 -19.752729 -6.826895 -12.735312 1.985468 38.960354 0.000000 0.000000 -30.959999 0.000000 0.000000 -21.500000 0.000000 0.000000 0.000000 -24.303932 16.928932 -5.397888 -15.278192 -0.383150 4.596982 -15.278647 0.581508 4.333474 0.000000 0.000000 0.000000 -21.847321 6.956190 -6.445376 -14.663191 -0.771300 1.777572 -14.661921 0.196135 1.524446 0.000000 0.000000 0.000000 -20.180004 -8.943714 -6.463911 -14.725952 1.703413 -2.296092 -14.719422 -0.230934 -1.787793 0.000000 0.000000 0.000000 -16.329264 -25.722683 -8.979443 -13.147321 3.289316 -6.173567 -13.126022 -0.606088 -5.264394 0.000000 0.000000 0.000000 0.000000 0.000000 0.000000 0.000000 0.000000 0.000000 -9.091002 5.308258 -2.147241 -0.755458 -1.401172 28.335550 5.249650 -1.569645 13.257589 -0.930692 1.674897 -21.556427 0.000000 0.000000 0.000000 0.000000 0.000000 0.000000 0.000000 0.000000 0.000000 -2.693712 4.248030 11.419389 0.122152 0.739580 9.378725 -0.930777 13.657081 15.511531 0.810878 -0.999698 -20.630232 0.000000 0.000000 0.000000 0.000000 0.000000 0.000000 0.000000 0.000000 0.000000 
-0.114847 87.387405 4.400901 3.136978 -0.180688 -12.324729 -4.052546 0.578550 7.171228 -2.648323 0.506701 4.583510 2.610600 -1.610660 5.319246 1.955006 -0.607592 2.659594 0.290172 -3.445473 -0.144285 0.644116 -2.584051 -6.842820 1.224538 0.520365 -18.201683 0.000000 0.000000 0.000000 91.634781 -0.477277 6.863532 61.221733 -22.198347 5.497258 -0.037062 14.808127 35.471107 14.846117 10.742392 -2.724399 13.786447 -2.155463 38.319515 0.000007 0.000024 -33.543289 -0.000008 0.000025 -23.495905 0.000006 -0.000003 -0.000003 23.753098 16.787586 -5.560530 16.134842 -0.329724 -4.158265 16.065311 0.644661 -3.807549 -0.000012 -0.000007 -0.000018 22.200054 6.990433 -6.356112 15.112453 -0.736814 -1.604618 15.151718 0.223791 -1.354311 0.000030 0.000093 0.000010 21.796183 -9.137957 -6.597398 13.751724 1.663903 2.039921 13.610073 -0.265621 1.564422 0.000018 -0.000892 0.000001 20.818127 -26.110987 -8.759600 10.409280 3.130512 5.129159 10.350841 -0.725914 4.427581 0.000160 -0.000000 0.000003 0.000000 0.000000 0.000000 0.000000 0.000000 0.000000 -90.044121 0.064979 10.633080 -65.712952 39.411697 -5.024498 -1.749665 -16.801285 44.444721 -16.794992 -20.081470 -6.132793 -12.930707 2.082363 38.791492 -0.000001 0.000010 -31.259480 0.000087 -0.000019 -21.701042 -0.000030 -0.000008 0.003695 -22.884192 16.963791 -5.110078 -13.843423 -0.412620 4.190886 -14.011343 0.561594 3.893125 0.000010 -0.000076 0.000012 -20.986172 7.002715 -5.627145 -13.873945 -0.766674 1.614598 -13.485220 0.187724 1.372537 -0.000505 -0.000026 0.000026 -19.941540 -9.020235 -5.165814 -14.136349 1.669910 -2.114828 -13.852796 -0.241291 -1.605240 -0.000095 0.000003 -0.000005 -17.161573 -25.918772 -6.643996 -12.528050 3.174538 -5.598958 -12.508292 -0.666958 -4.664973 -0.000749 0.000001 -0.000012 0.000000 0.000000 0.000000 0.000000 0.000000 0.000000 -9.373588 7.518452 -0.387935 -0.373924 -0.829467 27.639605 3.080410 -3.871758 14.836161 -0.874734 0.421638 -22.020481 0.000000 0.000000 0.000000 0.000000 0.000000 0.000000 0.000000 0.000000 0.000000 -0.934155 7.974052 14.403202 0.117875 0.520896 8.599093 0.106222 11.310191 16.248510 0.415376 -1.049984 -18.437836 0.000000 0.000000 0.000000 0.000000 0.000000 0.000000 0.000000 0.000000 0.000000 
0.469507 87.325043 4.340534 3.630687 -0.971321 -12.651920 -4.238493 0.666208 7.356422 -2.380738 0.476218 4.488882 2.208726 -1.138099 5.753807 1.726628 -0.440541 2.656587 -0.296817 -2.787291 -0.099061 0.719741 -2.313844 -6.612572 1.179554 0.554734 -18.239141 0.000000 0.000000 0.000000 91.979973 -0.433222 6.928409 61.125744 -21.260145 5.477998 -0.052985 15.243183 35.638981 14.376205 11.753753 -2.306525 13.909617 -2.159994 38.278187 0.000002 0.000026 -33.804577 -0.000007 0.000021 -23.694439 0.000008 0.000001 -0.000002 24.348507 16.721266 -5.880043 16.508480 -0.238224 -4.457475 16.385281 0.734970 -4.076861 0.000003 0.000001 -0.000005 22.904331 6.975617 -6.534029 15.573078 -0.698245 -1.729746 15.596319 0.256969 -1.457259 0.000021 0.000043 0.000004 22.597366 -9.147517 -6.736472 14.218724 1.601414 2.211993 14.078154 -0.312355 1.696021 0.000009 -0.000363 -0.000009 21.449245 -26.162680 -8.630836 10.867357 2.958719 5.627474 10.776653 -0.872730 4.845065 0.000347 0.000012 -0.000015 0.000000 0.000000 0.000000 0.000000 0.000000 0.000000 -90.402039 0.202365 10.506777 -65.766953 38.499504 -6.300078 -1.591608 -17.409996 47.636032 -17.218529 -20.195896 -5.326293 -12.980105 2.072664 38.778152 -0.000003 0.000004 -31.395355 0.000051 -0.000006 -21.817411 -0.000720 0.000002 0.003302 -23.222332 17.057983 -4.789922 -14.104011 -0.350342 4.408197 -14.267771 0.622530 4.084145 0.000028 -0.000030 0.000010 -21.271883 7.043335 -5.434989 -14.159715 -0.742154 1.701532 -13.809155 0.207953 1.444009 -0.000048 -0.000034 -0.000003 -20.129366 -9.069933 -5.162501 -14.410305 1.629972 -2.245367 -14.135449 -0.270789 -1.701853 0.000001 -0.000001 -0.000001 -17.213675 -26.040445 -6.835183 -12.746318 3.065008 -5.977994 -12.761293 -0.757836 -4.973993 -0.000758 0.000008 -0.000027 0.000000 0.000000 0.000000 0.000000 0.000000 0.000000 -10.217661 8.165035 -0.920717 -0.381722 -0.856073 28.003540 3.292781 -3.455912 15.091306 -0.940839 0.391662 -22.154995 0.000000 0.000000 0.000000 0.000000 0.000000 0.000000 0.000000 0.000000 0.000000 -1.808905 9.055636 15.004876 0.093971 0.475518 7.865254 0.483207 11.986107 16.358536 0.336720 -1.007826 -18.420942 0.000000 0.000000 0.000000 0.000000 0.000000 0.000000 0.000000 0.000000 0.000000 
1.004111 87.234787 4.314790 3.981678 -1.667547 -12.973281 -4.366369 0.742923 7.526078 -2.167948 0.464695 4.337629 1.948691 -0.639669 6.154622 1.483442 -0.238274 2.730124 -0.773188 -2.278380 -0.061520 0.750618 -2.192114 -6.463722 1.189592 0.599241 -18.343946 0.000000 0.000000 0.000000 92.243835 -0.406960 6.969223 60.850643 -21.037287 5.506167 -0.013092 15.391429 35.976284 13.782993 12.467911 -2.434538 14.031006 -2.160753 38.239990 -0.000003 0.000031 -34.067406 -0.000014 0.000024 -23.880072 -0.000001 -0.000003 0.000006 25.069296 16.674114 -6.110123 16.919331 -0.176004 -4.662481 16.750402 0.798358 -4.260395 0.000008 -0.000005 0.000004 23.704649 6.969803 -6.651631 16.070549 -0.672153 -1.816431 16.090174 0.280323 -1.529100 0.000010 0.000026 0.000005 23.587467 -9.162271 -6.834846 14.749582 1.558385 2.332450 14.608186 -0.346834 1.788351 0.000014 0.000127 -0.000004 22.418350 -26.223392 -8.593674 11.426342 2.837291 5.990669 11.303429 -0.982200 5.148185 0.000454 0.000015 -0.000028 0.000000 0.000000 0.000000 0.000000 0.000000 0.000000 -90.662827 0.280546 10.336009 -65.615112 37.500740 -7.306344 -1.442454 -17.970066 50.902527 -17.497583 -20.669968 -4.613921 -13.058862 2.070709 38.746563 -0.000011 -0.000004 -31.604601 0.000020 -0.000001 -21.976990 -0.001260 0.000003 0.002561 -23.879223 17.125401 -4.771989 -14.470393 -0.309076 4.545051 -14.611322 0.663715 4.201108 0.000032 0.000022 0.000015 -21.870539 7.073913 -5.451474 -14.557382 -0.727056 1.758103 -14.238944 0.221855 1.490172 0.000198 -0.000037 -0.000009 -20.712173 -9.103698 -5.319825 -14.832351 1.605257 -2.334861 -14.567493 -0.291469 -1.767594 0.000125 -0.000012 0.000001 -17.740767 -26.110306 -7.146754 -13.110979 2.991454 -6.243049 -13.180824 -0.822580 -5.186494 -0.000737 0.000004 -0.000032 0.000000 0.000000 0.000000 0.000000 0.000000 0.000000 -10.871969 8.471496 -1.168093 -0.387188 -0.870158 28.043076 3.419320 -3.197167 15.314909 -0.999734 0.363793 -22.275846 0.000000 0.000000 0.000000 0.000000 0.000000 0.000000 0.000000 0.000000 0.000000 -2.429065 9.979319 15.432363 0.075273 0.427520 7.440060 0.849975 12.534027 16.297659 0.264855 -0.961634 -18.356665 0.000000 0.000000 0.000000 0.000000 0.000000 0.000000 0.000000 0.000000 0.000000 
